<?xml version="1.0" standalone="no"?>
<!DOCTYPE svg PUBLIC "-//W3C//DTD SVG 20010904//EN"
 "http://www.w3.org/TR/2001/REC-SVG-20010904/DTD/svg10.dtd">
<svg version="1.0" xmlns="http://www.w3.org/2000/svg"
 width="467.000000pt" height="534.000000pt" viewBox="0 0 467.000000 534.000000"
 preserveAspectRatio="xMidYMid meet">

<g transform="translate(0.000000,534.000000) scale(0.100000,-0.100000)"
fill="#000000" stroke="none">
<path d="M1427 4309 c-92 -22 -180 -90 -220 -172 -22 -46 -27 -69 -27 -135 0
-198 101 -348 405 -598 66 -54 141 -121 166 -148 l46 -48 143 138 c311 300
348 339 409 428 103 150 93 325 -25 444 -75 74 -128 96 -234 97 -105 0 -155
-21 -236 -97 l-56 -53 -33 38 c-84 97 -210 136 -338 106z"/>
<path d="M2727 3556 c-8 -9 -28 -13 -50 -11 -20 2 -40 -1 -43 -7 -5 -7 -2 -8
6 -3 9 6 11 4 5 -4 -5 -8 -11 -9 -17 -3 -11 11 -76 -3 -93 -20 -13 -13 43 -58
63 -50 11 4 13 2 7 -8 -5 -8 -4 -11 3 -6 6 3 13 -3 17 -14 3 -11 11 -20 16
-20 6 0 5 9 -2 23 -6 12 -8 19 -4 14 10 -9 45 21 45 39 0 7 -8 18 -17 23 -10
6 -14 11 -10 11 4 0 20 -8 35 -17 16 -10 22 -11 15 -3 -10 11 -7 19 20 41 17
16 29 28 25 29 -4 0 -13 -6 -21 -14z m-107 -81 c11 -13 10 -14 -4 -9 -9 3 -16
10 -16 15 0 13 6 11 20 -6z"/>
<path d="M1243 3454 c-331 -175 -568 -504 -628 -874 -81 -502 163 -993 617
-1244 37 -21 72 -35 77 -32 5 4 11 2 13 -4 2 -6 35 -21 73 -34 117 -40 116
-40 108 -19 -6 15 -4 16 9 6 21 -18 29 -6 16 23 -9 19 -8 28 3 41 9 10 20 29
27 43 6 14 23 43 36 65 14 22 30 47 35 56 8 12 7 20 -4 29 -8 7 -15 9 -15 5 0
-4 -7 -2 -15 5 -8 7 -15 10 -15 7 0 -7 -99 27 -160 55 -138 63 -309 222 -389
363 -83 145 -116 274 -115 450 0 122 10 183 46 290 86 253 315 475 566 550 34
10 62 21 62 24 0 4 -36 35 -81 71 -44 36 -104 86 -132 112 -29 26 -55 48 -59
48 -3 0 -37 -16 -75 -36z"/>
<path d="M2184 3432 c-33 -31 -86 -80 -117 -109 -31 -29 -57 -56 -57 -60 0 -4
40 -21 89 -36 49 -16 105 -39 124 -53 20 -13 43 -24 51 -24 9 0 16 -4 16 -10
0 -5 8 -10 17 -10 9 0 13 -3 10 -6 -7 -7 80 -67 98 -69 6 0 9 -6 8 -12 -1 -6
5 -17 15 -25 15 -12 16 -11 3 5 -10 13 -10 17 -1 17 10 0 10 3 0 15 -14 17 -7
19 20 5 16 -8 19 -7 17 10 -1 15 -7 19 -22 15 l-20 -5 20 11 c21 10 29 23 60
89 10 19 24 43 33 53 14 16 14 19 2 28 -8 5 -21 7 -27 4 -7 -2 -13 0 -13 5 0
6 4 10 9 10 5 0 18 3 28 6 15 5 16 4 3 -6 -13 -10 -13 -11 0 -7 17 4 21 26 6
45 -7 10 -11 10 -17 0 -6 -9 -10 -7 -15 7 -13 33 -47 55 -63 42 -10 -8 -12 -8
-8 -1 3 6 -6 21 -20 34 -36 32 -147 90 -169 90 -11 0 -46 -26 -80 -58z m231
-360 c-3 -3 -11 0 -18 7 -9 10 -8 11 6 5 10 -3 15 -9 12 -12z"/>
<path d="M2660 3413 c1 -13 30 -48 30 -36 0 7 -5 15 -10 18 -6 4 -8 11 -5 16
4 5 1 9 -4 9 -6 0 -11 -3 -11 -7z"/>
<path d="M2576 3273 c-4 -9 -3 -20 2 -25 6 -6 10 1 10 16 0 30 -3 32 -12 9z"/>
<path d="M1964 3067 c-51 -68 -87 -137 -128 -241 -57 -142 -68 -200 -73 -386
-5 -177 4 -273 33 -352 8 -21 11 -38 8 -38 -4 0 -1 -6 5 -13 6 -8 7 -18 3 -22
-4 -5 2 -5 12 -1 16 5 17 4 6 -8 -10 -13 -8 -20 8 -41 12 -15 19 -34 16 -43
-5 -14 -4 -14 6 1 6 10 9 25 6 33 -3 8 0 14 6 14 6 0 8 -11 5 -29 -4 -20 -2
-31 7 -34 10 -4 12 1 8 15 -4 15 -2 19 7 13 10 -6 11 -3 2 13 -16 30 -13 40 4
18 8 -11 15 -16 15 -11 0 5 -7 16 -15 25 -14 15 -13 19 5 40 11 13 18 31 15
40 -3 10 2 23 10 30 9 8 22 29 30 47 8 19 21 41 30 50 9 8 14 22 11 29 -3 7 3
18 12 23 10 6 12 11 5 11 -7 0 -13 5 -13 11 0 5 5 7 12 3 8 -5 9 -2 5 9 -5 14
-2 15 21 7 23 -9 24 -8 11 3 -14 10 -15 21 -8 67 5 30 9 73 9 95 -1 44 4 79
20 143 6 24 7 48 4 54 -5 7 -2 8 5 4 8 -5 11 -3 10 5 -2 8 5 32 15 54 10 22
19 45 20 50 2 10 9 22 62 106 17 28 20 39 11 48 -9 9 -8 11 5 6 11 -5 21 3 34
24 10 17 22 31 26 31 22 0 -11 34 -65 67 -58 36 -76 45 -137 71 -58 24 -59 24
-106 -41z"/>
<path d="M2470 3009 c0 -5 5 -7 10 -4 6 3 10 8 10 11 0 2 -4 4 -10 4 -5 0 -10
-5 -10 -11z"/>
<path d="M2045 2250 c3 -5 11 -10 16 -10 6 0 7 5 4 10 -3 6 -11 10 -16 10 -6
0 -7 -4 -4 -10z"/>
<path d="M1891 1863 c-1 -17 16 -25 25 -12 4 7 3 9 -4 5 -5 -3 -13 0 -15 6 -4
9 -6 10 -6 1z"/>
<path d="M1576 1245 c-3 -8 -1 -15 5 -15 6 0 7 -5 3 -12 -4 -6 -3 -8 4 -5 5 4
8 16 5 27 -6 24 -9 25 -17 5z"/>
<path d="M1545 1230 c3 -5 8 -10 11 -10 2 0 4 5 4 10 0 6 -5 10 -11 10 -5 0
-7 -4 -4 -10z"/>
</g>
</svg>
