<svg xmlns="http://www.w3.org/2000/svg" viewBox="0 0 800 100" preserveAspectRatio="none">
  <defs>
    <pattern id="zellige" patternUnits="userSpaceOnUse" width="40" height="40" patternTransform="scale(0.5)">
      <path d="M0,20 L20,0 L40,20 L20,40 Z" fill="none" stroke="#f2051930" stroke-width="1"/>
      <path d="M20,0 L40,20 L20,40 L0,20 Z" fill="none" stroke="#f2051930" stroke-width="1"/>
      <circle cx="20" cy="20" r="5" fill="#f2051920"/>
    </pattern>
    <pattern id="arabesque" patternUnits="userSpaceOnUse" width="60" height="60" patternTransform="scale(0.5)">
      <path d="M15,0 Q30,30 15,60 Q0,30 15,0 Z" fill="none" stroke="#ffffff30" stroke-width="1"/>
      <path d="M45,0 Q60,30 45,60 Q30,30 45,0 Z" fill="none" stroke="#ffffff30" stroke-width="1"/>
    </pattern>
  </defs>
  <rect width="800" height="100" fill="#025928"/>
  <rect width="800" height="100" fill="url(#zellige)"/>
  <rect width="800" height="100" fill="url(#arabesque)"/>

  <!-- Decorative arches -->
  <path d="M50,100 Q75,70 100,100" fill="none" stroke="#f20519" stroke-width="2"/>
  <path d="M150,100 Q175,70 200,100" fill="none" stroke="#f20519" stroke-width="2"/>
  <path d="M250,100 Q275,70 300,100" fill="none" stroke="#f20519" stroke-width="2"/>
  <path d="M350,100 Q375,70 400,100" fill="none" stroke="#f20519" stroke-width="2"/>
  <path d="M450,100 Q475,70 500,100" fill="none" stroke="#f20519" stroke-width="2"/>
  <path d="M550,100 Q575,70 600,100" fill="none" stroke="#f20519" stroke-width="2"/>
  <path d="M650,100 Q675,70 700,100" fill="none" stroke="#f20519" stroke-width="2"/>
  <path d="M750,100 Q775,70 800,100" fill="none" stroke="#f20519" stroke-width="2"/>
</svg>

