<svg xmlns="http://www.w3.org/2000/svg" viewBox="0 0 800 100" preserveAspectRatio="none">
  <defs>
    <pattern id="zellige-footer" patternUnits="userSpaceOnUse" width="40" height="40" patternTransform="scale(0.5)">
      <path d="M0,20 L20,0 L40,20 L20,40 Z" fill="none" stroke="#f2051930" stroke-width="1"/>
      <path d="M20,0 L40,20 L20,40 L0,20 Z" fill="none" stroke="#f2051930" stroke-width="1"/>
      <circle cx="20" cy="20" r="5" fill="#f2051920"/>
    </pattern>
    <pattern id="arabesque-footer" patternUnits="userSpaceOnUse" width="60" height="60" patternTransform="scale(0.5)">
      <path d="M15,0 Q30,30 15,60 Q0,30 15,0 Z" fill="none" stroke="#ffffff30" stroke-width="1"/>
      <path d="M45,0 Q60,30 45,60 Q30,30 45,0 Z" fill="none" stroke="#ffffff30" stroke-width="1"/>
    </pattern>
  </defs>
  <rect width="800" height="100" fill="#025928"/>
  <rect width="800" height="100" fill="url(#zellige-footer)"/>
  <rect width="800" height="100" fill="url(#arabesque-footer)"/>

  <!-- Decorative arches -->
  <path d="M50,0 Q75,30 100,0" fill="none" stroke="#f20519" stroke-width="2"/>
  <path d="M150,0 Q175,30 200,0" fill="none" stroke="#f20519" stroke-width="2"/>
  <path d="M250,0 Q275,30 300,0" fill="none" stroke="#f20519" stroke-width="2"/>
  <path d="M350,0 Q375,30 400,0" fill="none" stroke="#f20519" stroke-width="2"/>
  <path d="M450,0 Q475,30 500,0" fill="none" stroke="#f20519" stroke-width="2"/>
  <path d="M550,0 Q575,30 600,0" fill="none" stroke="#f20519" stroke-width="2"/>
  <path d="M650,0 Q675,30 700,0" fill="none" stroke="#f20519" stroke-width="2"/>
  <path d="M750,0 Q775,30 800,0" fill="none" stroke="#f20519" stroke-width="2"/>
</svg>

